<?xml version="1.0" standalone="no"?>
<!DOCTYPE svg PUBLIC "-//W3C//DTD SVG 20010904//EN"
 "http://www.w3.org/TR/2001/REC-SVG-20010904/DTD/svg10.dtd">
<svg version="1.0" xmlns="http://www.w3.org/2000/svg"
 width="1024.000000pt" height="1024.000000pt" viewBox="0 0 1024.000000 1024.000000"
 preserveAspectRatio="xMidYMid meet">

<g transform="translate(0.000000,1024.000000) scale(0.100000,-0.100000)"
fill="#000000" stroke="none">
<path d="M4775 8883 c-66 -7 -144 -20 -175 -28 -30 -8 -39 -12 -20 -9 189 28
288 37 490 43 l235 8 -205 0 c-120 1 -254 -5 -325 -14z"/>
<path d="M5325 8884 c11 -1 67 -8 125 -14 119 -14 281 -43 355 -65 28 -8 84
-24 125 -36 41 -13 129 -44 195 -71 151 -61 158 -64 112 -38 -70 39 -299 121
-433 155 -143 37 -382 76 -454 74 -25 -1 -36 -3 -25 -5z"/>
<path d="M4420 8816 c-174 -46 -323 -102 -495 -188 -152 -76 -237 -127 -230
-139 4 -5 0 -6 -8 -3 -16 6 -193 -119 -190 -134 1 -6 -5 -16 -15 -24 -15 -12
-16 -11 -3 5 24 31 -1 18 -58 -30 -193 -164 -365 -356 -496 -553 -120 -181
-221 -392 -209 -434 4 -15 3 -17 -4 -7 -7 10 -14 0 -26 -36 -9 -27 -19 -61
-21 -74 -3 -13 -7 -37 -11 -54 -3 -17 21 17 56 80 304 541 881 974 1525 1145
757 201 1526 54 2090 -399 128 -102 270 -244 253 -251 -31 -11 -258 -184 -255
-194 2 -5 70 -41 153 -79 264 -123 643 -302 876 -416 125 -61 232 -111 238
-111 9 0 58 30 108 65 1 1 -2 13 -7 26 -5 13 -10 18 -10 11 -1 -8 -141 58
-358 169 -197 100 -472 238 -611 305 -253 123 -254 123 -225 137 15 9 37 24
48 34 11 10 64 43 117 73 54 30 98 59 98 63 0 15 -214 228 -295 294 -576 464
-1263 620 -2036 463 -393 -80 -727 -232 -1054 -478 -33 -25 -54 -38 -46 -29
23 29 245 183 343 239 103 59 237 125 311 153 26 10 47 20 47 22 0 8 -55 -2
-63 -12 -4 -5 -5 1 -3 15 3 14 5 28 5 32 1 4 8 5 16 2 8 -4 15 -2 15 4 0 15
-28 22 -34 9 -5 -9 -7 -9 -12 1 -11 23 -22 12 -19 -19 2 -26 0 -29 -10 -18 -7
8 -16 25 -20 39 -5 19 -4 21 4 10 9 -12 11 -12 16 2 4 10 4 21 1 27 -10 16
-79 5 -121 -20 -22 -12 -35 -18 -30 -12 10 10 123 73 132 73 2 0 1 -5 -3 -12
-5 -8 -2 -9 10 -5 9 4 15 3 12 -2 -3 -5 1 -12 10 -15 8 -3 12 -10 9 -16 -4 -6
1 -7 10 -3 13 5 14 8 3 15 -9 6 -5 8 14 6 15 -2 26 2 25 7 -1 6 -6 9 -10 7 -5
-1 -6 1 -3 6 2 4 1 14 -4 22 -7 12 -12 12 -22 2 -6 -6 -21 -12 -32 -12 -14 1
-5 9 27 26 27 14 56 23 64 20 9 -4 11 -2 7 6 -5 8 -2 9 10 5 9 -4 15 -3 12 1
-8 14 64 43 88 37 15 -5 17 -4 7 3 -14 10 167 75 329 118 47 12 76 22 65 22
-11 0 -58 -10 -105 -22z m-460 -215 c0 -5 -7 -12 -16 -15 -14 -5 -15 -4 -4 9
14 17 20 19 20 6z m-210 -86 c0 -2 -10 -9 -22 -15 -22 -11 -22 -10 -4 4 21 17
26 19 26 11z m-110 -69 c0 -3 -15 -14 -32 -26 l-33 -22 30 26 c31 27 35 29 35
22z m-370 -441 c-18 -19 -35 -33 -38 -31 -4 4 59 65 67 66 3 0 -10 -16 -29
-35z m-50 -38 c0 -2 -17 -19 -37 -38 l-38 -34 34 38 c33 34 41 42 41 34z"/>
<path d="M6295 8627 c11 -8 65 -37 120 -66 55 -29 147 -84 205 -122 58 -38 92
-58 75 -44 -44 38 -226 151 -323 201 -84 44 -114 56 -77 31z"/>
<path d="M4011 8507 c-6 -8 -8 -17 -4 -20 7 -8 33 11 33 24 0 13 -16 11 -29
-4z"/>
<path d="M4078 8493 c6 -2 18 -2 25 0 6 3 1 5 -13 5 -14 0 -19 -2 -12 -5z"/>
<path d="M3966 8478 c3 -5 10 -6 15 -3 13 9 11 12 -6 12 -8 0 -12 -4 -9 -9z"/>
<path d="M4035 8480 c4 -6 11 -8 16 -5 14 9 11 15 -7 15 -8 0 -12 -5 -9 -10z"/>
<path d="M6730 8366 c0 -2 8 -10 18 -17 15 -13 16 -12 3 4 -13 16 -21 21 -21
13z"/>
<path d="M6773 8333 c9 -14 87 -77 87 -70 0 3 -21 22 -47 43 -26 21 -44 33
-40 27z"/>
<path d="M7299 8243 l-24 -28 28 24 c15 14 27 26 27 28 0 8 -8 1 -31 -24z"/>
<path d="M6900 8225 c19 -19 36 -35 39 -35 3 0 -10 16 -29 35 -19 19 -36 35
-39 35 -3 0 10 -16 29 -35z"/>
<path d="M7229 8183 l-24 -28 28 24 c15 14 27 26 27 28 0 8 -8 1 -31 -24z"/>
<path d="M6957 8178 c3 -7 28 -33 57 -58 l51 -44 -55 57 c-57 60 -63 65 -53
45z"/>
<path d="M7135 8103 c-27 -25 -41 -41 -30 -35 19 10 94 82 84 82 -2 -1 -26
-22 -54 -47z"/>
<path d="M3351 7424 c-56 -25 -99 -63 -121 -108 -20 -42 -20 -53 -18 -847 l3
-804 63 -33 c35 -19 67 -31 70 -27 4 4 9 373 12 822 l5 815 28 24 c16 13 42
25 60 25 18 1 711 1 1542 0 1035 -1 1506 2 1499 9 -5 5 -79 39 -163 75 l-153
65 -1397 -1 c-1211 -1 -1401 -3 -1430 -15z"/>
<path d="M6034 7195 c-12 -8 -24 -29 -28 -46 -13 -67 -68 -89 -119 -49 -14 11
-29 20 -35 20 -5 0 -28 -20 -51 -45 -43 -47 -50 -77 -26 -109 20 -27 19 -70
-3 -89 -10 -10 -35 -17 -55 -17 -33 0 -37 -3 -46 -37 -24 -84 -4 -143 48 -143
56 0 84 -62 51 -115 -27 -43 -21 -65 29 -105 46 -36 46 -36 96 -10 22 11 46
20 55 20 25 -1 57 -32 74 -72 15 -38 16 -38 71 -38 68 0 90 10 103 50 10 28
63 70 90 70 7 0 26 -10 42 -21 26 -20 32 -21 60 -9 32 13 80 67 80 89 0 7 -9
24 -20 38 -23 29 -26 71 -7 96 6 9 30 22 52 29 l40 13 0 75 c0 81 2 79 -76 95
-17 3 -31 15 -39 35 -11 26 -10 37 5 69 20 45 14 62 -40 110 -42 36 -50 37
-90 11 -53 -35 -100 -19 -111 39 -8 41 -38 61 -89 61 -22 0 -50 -7 -61 -15z
m145 -244 c51 -26 99 -83 107 -126 19 -104 -19 -187 -107 -233 -36 -19 -54
-22 -98 -18 -60 5 -89 23 -135 79 -37 47 -47 126 -22 191 40 105 160 155 255
107z"/>
<path d="M6860 6316 c0 -818 0 -823 -21 -850 l-20 -26 -1575 0 c-937 0 -1573
-4 -1570 -9 3 -5 31 -23 61 -40 31 -17 108 -66 173 -107 l117 -76 -50 -44 -50
-44 1200 1 c660 1 1325 4 1477 8 l276 6 44 30 c25 18 52 49 66 75 l22 44 -2
895 -3 895 -72 33 -73 32 0 -823z m-1609 -1026 c27 -15 24 -39 -7 -50 -34 -13
-250 -13 -275 0 -24 13 -25 36 -1 49 23 14 258 14 283 1z"/>
<path d="M3530 6540 l0 -350 220 0 220 0 0 70 0 70 -135 0 -135 0 0 59 c0 33
-3 66 -6 75 -5 14 8 16 105 16 l111 0 0 60 c0 33 1 63 3 66 1 4 -46 6 -105 5
l-106 -2 -6 28 c-4 15 -5 47 -4 71 l1 42 134 0 133 0 0 70 0 70 -215 0 -215 0
0 -350z"/>
<path d="M4050 6540 l0 -350 85 0 85 0 0 110 0 110 34 0 c34 0 36 -3 94 -107
l59 -108 96 -3 c54 -1 97 0 97 3 0 2 -34 57 -75 122 -41 64 -75 120 -75 123 0
4 17 19 39 33 113 75 114 298 2 374 -54 36 -96 43 -273 43 l-168 0 0 -350z
m321 181 c23 -23 29 -38 29 -71 0 -23 -5 -50 -10 -61 -16 -29 -64 -49 -120
-49 l-50 0 0 105 0 105 61 0 c54 0 64 -3 90 -29z"/>
<path d="M4670 6540 l0 -350 85 0 85 0 0 89 0 88 88 7 c139 12 205 49 248 141
31 64 33 179 5 241 -23 49 -88 107 -140 122 -22 7 -107 12 -205 12 l-166 0 0
-350z m322 181 c30 -27 33 -35 33 -86 0 -54 -2 -59 -39 -91 -34 -29 -46 -34
-93 -34 l-53 0 0 120 0 120 60 0 c52 0 64 -4 92 -29z"/>
<path d="M6267 6363 c-4 -3 -7 -188 -7 -410 l0 -403 165 0 165 0 0 410 0 410
-158 0 c-87 0 -162 -3 -165 -7z m310 -153 l3 -145 -82 -60 c-45 -33 -114 -84
-155 -112 l-73 -53 0 260 0 261 153 -3 152 -3 2 -145z"/>
<path d="M5820 5908 l0 -363 165 0 165 0 0 363 0 362 -165 0 -165 0 0 -362z"/>
<path d="M5386 6042 c-3 -3 -6 -115 -6 -249 l0 -243 170 0 170 0 -2 248 -3
247 -162 1 c-89 1 -164 -1 -167 -4z"/>
<path d="M4950 5713 l0 -168 165 3 165 3 0 164 0 165 -165 0 -165 0 0 -167z"/>
<path d="M2630 5795 c-14 -8 -20 -14 -15 -14 6 0 21 6 35 14 14 8 21 14 15 14
-5 0 -21 -6 -35 -14z"/>
<path d="M2720 5775 c0 -5 34 -24 143 -77 42 -20 77 -35 77 -33 0 3 -49 30
-110 60 -60 30 -110 53 -110 50z"/>
<path d="M2510 5728 c0 -33 339 -1350 350 -1362 5 -5 68 34 150 93 l141 102
102 -97 c390 -369 886 -604 1457 -691 163 -25 605 -24 775 0 610 90 1106 328
1501 722 237 236 411 501 523 797 46 121 84 248 78 255 -5 4 -37 -94 -37 -111
0 -3 -16 -49 -36 -101 -40 -103 -58 -125 -25 -29 12 32 17 54 11 48 -5 -5 -48
-73 -95 -152 -135 -226 -229 -346 -401 -512 -383 -371 -831 -589 -1334 -649
-216 -26 -565 -8 -789 40 -347 75 -842 312 -1061 509 -33 29 -33 30 -5 13 17
-10 36 -23 43 -30 7 -7 24 -13 38 -13 22 0 24 4 24 50 0 28 3 50 6 50 17 0 44
-23 38 -32 -4 -7 -2 -8 5 -4 9 6 9 11 -1 23 -11 14 -10 15 11 8 34 -11 18 10
-32 42 -23 14 -47 33 -53 41 -7 9 -16 12 -25 7 -8 -5 -11 -4 -6 0 4 5 -1 18
-10 29 -15 16 59 -35 77 -54 18 -19 223 -147 310 -193 108 -58 249 -121 256
-115 1 2 -41 23 -95 46 -178 77 -404 219 -559 350 -35 30 -66 52 -68 49 -3 -2
9 -16 26 -31 17 -14 28 -26 23 -26 -5 0 -22 14 -38 30 -16 17 -25 30 -20 30 5
0 -20 29 -55 65 -75 75 -80 59 59 167 52 40 96 78 98 83 2 6 -41 36 -94 67
-113 65 -203 111 -203 103 0 -2 24 -16 53 -31 131 -66 292 -167 223 -141 -12
5 -54 -10 -116 -39 l-98 -46 -103 60 c-57 33 -133 74 -169 92 -230 115 -783
456 -798 492 -6 13 -52 9 -52 -4z m4942 -545 c-3 -16 -7 -22 -10 -15 -4 13 4
42 11 42 2 0 2 -12 -1 -27z m-3712 -297 c0 -8 -131 -109 -135 -104 -2 2 26 27
63 56 69 53 72 55 72 48z"/>
<path d="M3031 5616 c10 -9 69 -36 69 -32 0 6 -55 36 -66 36 -4 0 -5 -2 -3 -4z"/>
<path d="M3111 5576 c10 -9 349 -176 349 -171 0 3 -76 43 -170 90 -149 75
-194 95 -179 81z"/>
<path d="M7530 5460 c-6 -11 -8 -20 -6 -20 3 0 10 9 16 20 6 11 8 20 6 20 -3
0 -10 -9 -16 -20z"/>
<path d="M7493 5398 c-15 -20 -25 -38 -20 -38 3 0 12 11 21 25 17 26 16 35 -1
13z"/>
<path d="M3514 5371 c3 -5 16 -11 28 -14 22 -6 22 -5 4 8 -22 17 -40 20 -32 6z"/>
<path d="M7445 5324 c-9 -15 -12 -23 -6 -20 11 7 35 46 28 46 -3 0 -12 -12
-22 -26z"/>
<path d="M7379 5233 c-23 -32 -36 -53 -28 -46 17 14 83 103 76 103 -3 0 -24
-26 -48 -57z"/>
<path d="M7299 5133 l-24 -28 28 24 c15 14 27 26 27 28 0 8 -8 1 -31 -24z"/>
<path d="M7155 4983 c-66 -65 -97 -98 -70 -76 50 41 204 193 195 193 -3 -1
-59 -53 -125 -117z"/>
<path d="M4556 5042 c-5 -9 -66 -233 -66 -244 0 -5 275 -8 610 -8 481 0 610 3
610 13 0 6 -12 65 -27 129 l-28 118 -547 0 c-301 0 -549 -4 -552 -8z"/>
<path d="M6980 4829 l-45 -41 42 32 c37 27 61 51 51 50 -2 0 -23 -19 -48 -41z"/>
<path d="M6885 4759 c-52 -40 -57 -46 -17 -23 29 16 73 55 61 53 -2 0 -22 -14
-44 -30z"/>
<path d="M4156 4735 c-4 -10 20 -30 82 -67 l87 -53 893 -3 c782 -2 892 0 892
12 0 9 -9 40 -21 71 l-20 55 -954 0 c-833 0 -954 -2 -959 -15z"/>
<path d="M6770 4679 c-22 -18 -22 -19 -3 -10 12 6 25 16 28 21 9 15 3 12 -25
-11z"/>
<path d="M6708 4644 c-38 -20 -36 -28 2 -9 17 9 30 18 30 20 0 7 -1 6 -32 -11z"/>
<path d="M3933 4615 c0 -8 4 -12 9 -9 5 3 6 10 3 15 -9 13 -12 11 -12 -6z"/>
<path d="M6644 4604 c-18 -14 -18 -15 4 -4 12 6 22 13 22 15 0 8 -5 6 -26 -11z"/>
<path d="M3937 4583 c-3 -5 -8 -21 -11 -36 -3 -20 -1 -24 10 -20 8 3 13 12 10
19 -3 7 -1 16 4 19 4 3 11 -1 13 -7 4 -10 6 -10 6 0 1 7 5 11 9 8 5 -3 9 1 9
9 0 10 -4 12 -12 5 -7 -6 -15 -6 -22 1 -6 6 -13 7 -16 2z"/>
<path d="M6580 4570 c-9 -6 -10 -10 -3 -10 6 0 15 5 18 10 8 12 4 12 -15 0z"/>
<path d="M6510 4535 c-25 -13 -41 -24 -37 -25 11 0 87 39 87 45 0 7 0 7 -50
-20z"/>
<path d="M3970 4501 c0 -6 4 -13 10 -16 6 -3 7 1 4 9 -7 18 -14 21 -14 7z"/>
<path d="M6400 4485 c-14 -8 -20 -14 -15 -14 6 0 21 6 35 14 14 8 21 14 15 14
-5 0 -21 -6 -35 -14z"/>
<path d="M6330 4455 c-14 -8 -20 -14 -15 -14 6 0 21 6 35 14 14 8 21 14 15 14
-5 0 -21 -6 -35 -14z"/>
<path d="M6210 4410 c-8 -5 -10 -10 -5 -10 6 0 17 5 25 10 8 5 11 10 5 10 -5
0 -17 -5 -25 -10z"/>
<path d="M4510 4407 c0 -6 120 -47 134 -46 6 0 -11 8 -39 18 -76 27 -95 33
-95 28z"/>
<path d="M6078 4363 c7 -3 16 -2 19 1 4 3 -2 6 -13 5 -11 0 -14 -3 -6 -6z"/>
<path d="M4705 4340 c11 -5 27 -9 35 -9 9 0 8 4 -5 9 -11 5 -27 9 -35 9 -9 0
-8 -4 5 -9z"/>
<path d="M5958 4333 c7 -3 16 -2 19 1 4 3 -2 6 -13 5 -11 0 -14 -3 -6 -6z"/>
<path d="M4778 4323 c7 -3 16 -2 19 1 4 3 -2 6 -13 5 -11 0 -14 -3 -6 -6z"/>
<path d="M5918 4323 c7 -3 16 -2 19 1 4 3 -2 6 -13 5 -11 0 -14 -3 -6 -6z"/>
<path d="M4818 4313 c6 -2 18 -2 25 0 6 3 1 5 -13 5 -14 0 -19 -2 -12 -5z"/>
<path d="M5858 4313 c6 -2 18 -2 25 0 6 3 1 5 -13 5 -14 0 -19 -2 -12 -5z"/>
<path d="M4868 4303 c6 -2 18 -2 25 0 6 3 1 5 -13 5 -14 0 -19 -2 -12 -5z"/>
<path d="M5808 4303 c6 -2 18 -2 25 0 6 3 1 5 -13 5 -14 0 -19 -2 -12 -5z"/>
<path d="M4923 4293 c9 -2 23 -2 30 0 6 3 -1 5 -18 5 -16 0 -22 -2 -12 -5z"/>
<path d="M5753 4293 c9 -2 23 -2 30 0 6 3 -1 5 -18 5 -16 0 -22 -2 -12 -5z"/>
<path d="M4983 4283 c9 -2 23 -2 30 0 6 3 -1 5 -18 5 -16 0 -22 -2 -12 -5z"/>
<path d="M5683 4283 c9 -2 25 -2 35 0 9 3 1 5 -18 5 -19 0 -27 -2 -17 -5z"/>
<path d="M5058 4273 c12 -2 30 -2 40 0 9 3 -1 5 -23 4 -22 0 -30 -2 -17 -4z"/>
<path d="M5598 4273 c12 -2 32 -2 45 0 12 2 2 4 -23 4 -25 0 -35 -2 -22 -4z"/>
<path d="M5178 4263 c23 -2 61 -2 85 0 23 2 4 4 -43 4 -47 0 -66 -2 -42 -4z"/>
<path d="M5373 4263 c37 -2 96 -2 130 0 34 2 4 3 -68 3 -71 0 -99 -1 -62 -3z"/>
<path d="M2744 3299 c-163 -31 -267 -177 -223 -310 30 -89 97 -139 248 -188
125 -40 161 -67 161 -122 0 -33 -5 -42 -32 -60 -28 -17 -46 -20 -113 -17 -77
4 -102 12 -221 70 -11 5 -85 -135 -77 -143 18 -18 114 -59 168 -74 76 -19 217
-19 282 0 128 38 192 117 193 238 0 140 -75 221 -255 272 -123 36 -168 73
-146 122 13 28 66 53 113 53 42 0 123 -22 165 -44 l33 -16 35 70 c19 38 35 72
35 75 0 9 -94 53 -139 65 -55 15 -173 20 -227 9z"/>
<path d="M5190 2870 l0 -420 310 0 310 0 0 80 0 80 -200 0 -200 0 0 97 0 96
160 -6 160 -7 0 85 0 85 -160 0 -160 0 0 80 0 80 190 0 190 0 0 85 0 85 -300
0 -300 0 0 -420z m590 335 l0 -75 -190 0 -190 0 0 -90 0 -90 160 0 161 0 -2
-61 c-2 -68 -19 -60 -19 9 0 27 -4 41 -10 37 -6 -4 -7 -11 -4 -17 4 -6 2 -8
-4 -4 -5 3 -13 0 -16 -6 -3 -7 -3 -3 -1 9 6 21 4 21 -92 17 -116 -5 -184 2
-210 22 -11 9 -13 13 -4 12 7 -2 15 3 17 10 1 7 0 8 -3 2 -2 -5 -9 -8 -14 -4
-5 3 -12 -1 -15 -10 -4 -11 -11 -9 -32 13 -15 15 -19 17 -9 5 12 -14 15 -24 8
-29 -6 -3 -11 -2 -11 3 0 6 -9 8 -20 5 -11 -3 -27 0 -35 7 -9 7 -17 11 -19 9
-3 -2 -7 -42 -11 -89 -4 -47 -8 -86 -10 -88 -2 -2 -4 105 -4 237 l-2 241 291
0 290 0 0 -75z m-270 -300 c0 -8 -2 -15 -4 -15 -2 0 -6 7 -10 15 -3 8 -1 15 4
15 6 0 10 -7 10 -15z m133 -92 c-46 -2 -120 -2 -165 0 -46 1 -9 3 82 3 91 0
128 -2 83 -3z m-246 -110 c-2 -21 -4 -6 -4 32 0 39 2 55 4 38 2 -18 2 -50 0
-70z m231 -110 c-10 -2 -26 -2 -35 0 -10 3 -2 5 17 5 19 0 27 -2 18 -5z"/>
<path d="M5900 2871 l0 -421 113 0 112 0 -3 135 -4 135 59 0 59 0 80 -132 80
-133 122 -3 c67 -1 122 0 122 3 0 3 -44 72 -98 153 l-99 147 51 30 c33 20 61
47 81 79 28 46 30 57 30 140 0 74 -4 98 -22 131 -29 54 -78 99 -138 127 -47
22 -64 23 -297 26 l-248 3 0 -420z m552 376 c97 -48 148 -134 148 -251 -1 -89
-57 -182 -129 -212 -52 -22 -51 -17 4 15 28 16 56 40 64 53 l14 23 -23 -20
-22 -20 3 24 c2 13 -2 26 -8 28 -7 3 -13 0 -13 -7 0 -6 -5 -8 -10 -5 -6 4 -8
10 -6 14 3 4 -4 12 -14 19 -12 7 -21 8 -25 2 -3 -6 -16 -10 -28 -11 -16 0 -18
-2 -7 -7 8 -4 16 -13 18 -21 2 -11 0 -12 -10 -3 -20 16 -105 2 -94 -17 2 -3
-21 -7 -52 -8 l-57 -1 54 13 c93 23 131 64 131 143 0 63 -33 118 -79 131 -33
9 -184 12 -192 4 -4 -4 28 -7 72 -5 120 5 175 -27 186 -106 14 -102 -37 -149
-171 -159 l-86 -6 -2 54 -1 54 -7 -55 -7 -55 -1 49 c-2 46 -3 48 -16 30 -17
-22 -83 -29 -83 -8 0 9 5 10 18 3 23 -12 26 -12 32 4 3 9 -2 13 -16 12 -12 -1
-28 3 -36 9 -11 8 -13 8 -8 -1 9 -15 -35 -14 -46 2 -4 5 -5 -3 -3 -18 4 -21 1
-27 -9 -24 -11 5 -13 -22 -14 -141 -1 -80 -4 -148 -6 -151 -3 -2 -5 145 -5
328 l0 333 243 -4 242 -3 57 -28z m-467 -316 c3 -5 1 -12 -5 -16 -5 -3 -10 1
-10 9 0 18 6 21 15 7z m203 -88 c-10 -2 -26 -2 -35 0 -10 3 -2 5 17 5 19 0 27
-2 18 -5z m300 -176 c54 -81 70 -107 55 -92 -21 21 -126 178 -115 171 7 -4 34
-40 60 -79z m-275 66 c-18 -2 -48 -2 -65 0 -18 2 -4 4 32 4 36 0 50 -2 33 -4z
m105 -109 c-4 -3 -12 5 -18 18 -12 22 -12 22 6 6 10 -10 15 -20 12 -24z m-401
-56 c-3 -7 -5 -2 -5 12 0 14 2 19 5 13 2 -7 2 -19 0 -25z m683 -69 c15 -28 5
-23 -15 7 -9 15 -12 23 -6 20 6 -4 16 -16 21 -27z"/>
<path d="M6460 2920 c0 -5 5 -10 11 -10 5 0 7 5 4 10 -3 6 -8 10 -11 10 -2 0
-4 -4 -4 -10z"/>
<path d="M6540 2890 c-9 -6 -10 -10 -3 -10 6 0 15 5 18 10 8 12 4 12 -15 0z"/>
<path d="M6730 2871 l0 -421 120 0 120 0 0 109 0 109 128 4 c156 6 206 23 278
93 62 59 85 123 83 224 l-2 66 -7 -85 c-8 -101 -43 -186 -65 -157 -6 9 -15 14
-18 10 -4 -3 -7 -1 -7 4 0 6 6 13 12 15 10 4 9 9 -3 21 -13 12 -19 13 -29 4
-7 -7 -10 -7 -7 -2 8 16 -30 38 -39 23 -4 -6 -3 -8 4 -4 6 3 13 2 16 -3 7 -10
-19 -23 -28 -13 -11 11 -36 11 -36 0 0 -7 -5 -6 -14 1 -12 10 -18 8 -31 -12
-22 -34 -106 -59 -188 -56 -62 2 -65 3 -71 29 -4 21 -12 29 -35 32 -26 4 -29
2 -18 -10 10 -13 9 -14 -8 -5 -27 13 -44 11 -56 -7 -9 -12 -10 -10 -6 8 5 24
-17 32 -26 10 -4 -9 -6 -8 -6 2 -1 13 -3 13 -10 1 -7 -10 -4 -19 7 -28 15 -11
15 -12 -4 -9 -18 4 -21 -1 -23 -42 -1 -26 -6 -65 -11 -87 -4 -24 -8 85 -9 273
l-1 314 243 -4 242 -3 69 -34 c70 -34 117 -85 143 -154 6 -18 12 -26 12 -19 4
56 -76 149 -161 188 l-63 29 -247 3 -248 4 0 -421z m655 -70 c9 -16 -79 -91
-91 -78 -3 3 8 13 26 22 17 9 35 27 40 40 10 27 16 30 25 16z m-115 -90 c-18
-11 -140 -34 -146 -28 -3 2 28 11 68 19 91 19 97 19 78 9z m-165 -26 c6 -2
-11 -4 -37 -4 -27 -1 -48 3 -48 7 0 7 62 5 85 -3z"/>
<path d="M6960 2980 l0 -160 78 0 c105 1 151 22 182 85 17 36 21 58 18 96 -10
98 -67 139 -195 139 l-83 0 0 -160z m215 120 c43 -40 58 -77 53 -132 -10 -95
-68 -138 -185 -138 l-73 0 0 151 0 151 89 -4 c79 -3 93 -6 116 -28z"/>
<path d="M4045 3021 c-22 -10 -49 -28 -59 -40 -27 -30 -36 -26 -36 14 l0 35
-85 0 -85 0 0 -290 0 -290 95 0 95 0 0 179 c0 177 0 180 25 209 46 54 120 51
150 -7 12 -24 15 -67 15 -206 l0 -175 95 0 95 0 0 193 c0 267 -18 327 -110
375 -55 28 -138 29 -195 3z"/>
<path d="M4595 3016 c-74 -31 -146 -104 -169 -172 -21 -61 -20 -157 1 -220 24
-70 103 -147 173 -168 106 -31 255 -13 324 39 18 13 17 16 -14 72 -18 32 -34
60 -36 62 -2 2 -27 -6 -56 -19 -83 -36 -155 -17 -199 53 -31 49 -23 137 16
177 45 47 95 56 167 30 33 -12 61 -20 62 -18 52 85 66 112 66 122 0 27 -100
60 -190 63 -72 3 -94 0 -145 -21z"/>
<path d="M3130 2981 c10 -27 30 -76 43 -108 14 -32 57 -141 97 -242 66 -170
71 -185 59 -215 -25 -62 -47 -77 -113 -75 l-59 3 -17 -72 c-10 -40 -13 -75 -9
-78 5 -3 40 -8 77 -11 130 -11 227 38 278 139 34 67 274 679 274 699 0 5 -42
9 -93 9 l-92 0 -63 -190 c-35 -104 -65 -190 -66 -190 -2 0 -31 86 -65 190
l-63 190 -104 0 -104 0 20 -49z"/>
<path d="M7397 2843 c-4 -3 -7 -11 -7 -17 0 -6 5 -5 12 2 6 6 9 14 7 17 -3 3
-9 2 -12 -2z"/>
</g>
</svg>
